# xmcd CD database file
#
# Track frame offsets:
#	150
#	21045
#	47270
#	60145
#	84105
#	104560
#	122580
#	148515
#	169200
#	192340
#	213082
#	233274
#	282651
#	298233
#	323350
#	345262
#
# Disc length: 4792 seconds
#
# Revision: 0
# Processed by: cddbd v1.5.2PL0 Copyright (c) Steve Scherf et al.
# Submitted via: CDex 1.51
#
DISCID=cf12b610
DTITLE=Jim Hall Trio - Jazz Guitar
DYEAR=1957
DGENRE=Jazz
TTITLE0=Stompin' At The Savoy
TTITLE1=Things Ain't What They Used To Be
TTITLE2=This Is Always
TTITLE3=Thanks For The Memory
TTITLE4=Tangerine
TTITLE5=Stella By Starlight
TTITLE6=9:20 Special
TTITLE7=Deep In A Dream
TTITLE8=Look For The Silver Lining
TTITLE9=Seven Come Eleven
TTITLE10=Too Close For Comfort
TTITLE11=Two Lyrics Pieces - Pierrot-Colombine
TTITLE12=I Remember Clifford
TTITLE13=Two Degrees East, Two Degrees West
TTITLE14=I Should Care
TTITLE15=Skylark
EXTD=YEAR: 1957
EXTT0=
EXTT1=
EXTT2=
EXTT3=
EXTT4=
EXTT5=
EXTT6=
EXTT7=
EXTT8=
EXTT9=
EXTT10=
EXTT11=
EXTT12=
EXTT13=
EXTT14=
EXTT15=
PLAYORDER=
